{"title":"Zero Dark Thirty 2012 DVDSCR H264 AC3 ThyJesus","uid":7985841,"size":2926159165,"categoryP":"video","categoryS":"movies","magnet":"?xt=urn:btih:a1237bc17e517803d8901eba6d34e885d857c987&amp;dn=Zero+Dark+Thirty+2012+DVDSCR+H264+AC3+ThyJesus&amp;tr=udp%3A%2F%2Ftracker.openbittorrent.com%3A80&amp;tr=udp%3A%2F%2Fopen.demonii.com%3A1337&amp;tr=udp%3A%2F%2Ftracker.coppersurfer.tk%3A6969&amp;tr=udp%3A%2F%2Fexodus.desync.com%3A6969","seeders":1,"leechers":0,"uploader":"srkfan","files":3,"time":1357283170,"description":" &lt;a href=&quot;http://www.silvertorrent.org&quot; rel=&quot;nofollow&quot; target=&quot;_NEW&quot;&gt;http://www.silvertorrent.org&lt;/a&gt; &lt;a href=&quot;\nhttp://silvertorrent.org/index.php?page=torrent-details&amp;id=a1237bc17e517803d8901eba6d34e885d857c987&quot; rel=&quot;nofollow&quot; target=&quot;_NEW&quot;&gt;\nhttp://silvertorrent.org/index.php?page=torrent-details&amp;id=a1237bc17e517803d8901eba6d34e885d857c987&lt;/a&gt; &lt;a href=&quot;\nhttp://www.shotpix.com/images/08096634903738710469.png&quot; rel=&quot;nofollow&quot; target=&quot;_NEW&quot;&gt;\nhttp://www.shotpix.com/images/08096634903738710469.png&lt;/a&gt;\n &lt;a href=&quot;\nhttp://collider.com/wp-content/uploads/zero-dark-thirty-poster1.jpg&quot; rel=&quot;nofollow&quot; target=&quot;_NEW&quot;&gt;\nhttp://collider.com/wp-content/uploads/zero-dark-thirty-poster1.jpg&lt;/a&gt; &lt;a href=&quot;\nhttp://www.imdb.com/title/tt1790885/&quot; rel=&quot;nofollow&quot; target=&quot;_NEW&quot;&gt;\nhttp://www.imdb.com/title/tt1790885/&lt;/a&gt;\n\nFormat                                   : Matroska\nFormat version                           : Version 2\nFile size                                : 2.73 GiB\nDuration                                 : 2h 36mn\nOverall bit rate                         : 2 486 Kbps\n\n\nVideo\n\nDuration                                 : 2h 36mn\nBit rate                                 : 2 052 Kbps\nWidth                                    : 720 pixels\nHeight                                   : 384 pixels\nDisplay aspect ratio                     : 1.85:1\nFrame rate mode                          : Constant\nFrame rate                               : 29.970 fps\nColor space                              : YUV\nChroma subsampling                       : 4:2:0\nBit depth                                : 8 bits\nScan type                                : Progressive\nBits/(Pixel*Frame)                       : 0.248\nStream size                              : 2.25 GiB (83%)\nWriting library                          : x264 core 120\nLanguage                                 : English\n\n\nAudio\nID                                       : 2\nFormat                                   : AC-3\nFormat/Info                              : Audio Coding 3\nDuration                                 : 2h 36mn\nBit rate mode                            : Constant\nBit rate                                 : 384 Kbps\nChannel(s)                               : 2 channels\nChannel positions                        : Front: L R\nSampling rate                            : 48.0 KHz\nBit depth                                : 16 bits\nCompression mode                         : Lossy\nStream size                              : 431 MiB (15%) &lt;a href=&quot;\nhttp://silvertorrent.org/index.php?page=torrent-details&amp;id=a1237bc17e517803d8901eba6d34e885d857c987&quot; rel=&quot;nofollow&quot; target=&quot;_NEW&quot;&gt;\nhttp://silvertorrent.org/index.php?page=torrent-details&amp;id=a1237bc17e517803d8901eba6d34e885d857c987&lt;/a&gt; &lt;a href=&quot;\nhttp://img526.imageshack.us/img526/3861/frame0l.png&quot; rel=&quot;nofollow&quot; target=&quot;_NEW&quot;&gt;\nhttp://img526.imageshack.us/img526/3861/frame0l.png&lt;/a&gt;\nhttp://img152.imageshack.us/img152/8200/frame1b.png\nhttp://img845.imageshack.us/img845/9951/frame3y.png\nhttp://img571.imageshack.us/img571/4483/frame4o.png\nhttp://img593.imageshack.us/img593/3899/frame5k.png &lt;a href=&quot;\nhttp://silvertorrent.org/index.php?page=torrent-details&amp;id=a1237bc17e517803d8901eba6d34e885d857c987&quot; rel=&quot;nofollow&quot; target=&quot;_NEW&quot;&gt;\nhttp://silvertorrent.org/index.php?page=torrent-details&amp;id=a1237bc17e517803d8901eba6d34e885d857c987&lt;/a&gt;","torrent":{"xt":"urn:btih:a1237bc17e517803d8901eba6d34e885d857c987","amp;dn":"Zero+Dark+Thirty+2012+DVDSCR+H264+AC3+ThyJesus","amp;tr":["udp%3A%2F%2Ftracker.openbittorrent.com%3A80","udp%3A%2F%2Fopen.demonii.com%3A1337","udp%3A%2F%2Ftracker.coppersurfer.tk%3A6969","udp%3A%2F%2Fexodus.desync.com%3A6969"],"infoHash":"a1237bc17e517803d8901eba6d34e885d857c987","infoHashBuffer":{"type":"Buffer","data":[161,35,123,193,126,81,120,3,216,144,30,186,109,52,232,133,216,87,201,135]},"announce":[],"urlList":[]}}